<svg width="95" height="70" viewBox="0 0 95 70" fill="none" xmlns="http://www.w3.org/2000/svg">
<path fill-rule="evenodd" clip-rule="evenodd" d="M92.1604 6.55679C90.3109 6.24937 88.4916 7.16208 88.0956 8.59414L85.6078 17.5877C77.6869 7.11986 63.1482 0.551025 47.2136 0.551025C22.674 0.551025 2.70972 16.0165 2.70972 35.0267C2.70972 36.4912 4.24229 37.6786 6.13309 37.6786C8.02362 37.6786 9.55647 36.4912 9.55647 35.0267C9.55647 18.9413 26.4493 5.85497 47.2136 5.85497C60.7508 5.85497 73.0985 11.4566 79.7836 20.3757L68.3704 18.4809C66.5212 18.1739 64.7016 19.0864 64.3059 20.5185C63.9098 21.9505 65.0875 23.3605 66.9361 23.6673L86.5277 26.9197C86.8604 26.9751 87.1984 26.991 87.5317 26.9693C88.0868 26.9331 88.628 26.792 89.1045 26.5531C89.867 26.171 90.4021 25.57 90.5925 24.8823L94.7912 9.70543C95.1866 8.27357 94.009 6.86399 92.1604 6.55679Z" fill="#A1AAB4"/>
<path fill-rule="evenodd" clip-rule="evenodd" d="M88.7156 31.5505C86.8261 31.5989 85.3445 32.8247 85.4069 34.2884C85.7389 42.0763 82.1364 49.4978 75.2622 55.1869C68.3884 60.8752 59.0664 64.1501 49.0134 64.4072C48.5944 64.4179 48.1776 64.4232 47.7602 64.4232C34.6429 64.4227 22.5592 59.1453 15.7349 50.5947L27.6337 53.0663C29.4599 53.4455 31.3373 52.6064 31.827 51.1915C32.3167 49.7768 31.2332 48.3227 29.4071 47.9429L10.0543 43.9234C9.17736 43.7416 8.24264 43.8366 7.45663 44.1879C6.67008 44.5393 6.09632 45.1187 5.86106 45.798L0.672594 60.7904C0.182914 62.205 1.26634 63.6592 3.09251 64.0387C3.38966 64.1005 3.68763 64.1302 3.98122 64.1302C5.49244 64.1302 6.87575 63.3486 7.28574 62.1641L10.2022 53.7378C18.3153 63.6344 32.4374 69.7275 47.7585 69.7271C48.2507 69.7271 48.7456 69.721 49.2396 69.7082C61.1204 69.404 72.1374 65.5342 80.2612 58.8114C88.385 52.0885 92.6426 43.3172 92.2501 34.1134C92.188 32.6499 90.6047 31.4985 88.7156 31.5505Z" fill="#A1AAB4"/>
</svg>
